<?xml version="1.0" standalone="no"?>
<!DOCTYPE svg PUBLIC "-//W3C//DTD SVG 20010904//EN"
 "http://www.w3.org/TR/2001/REC-SVG-20010904/DTD/svg10.dtd">
<svg version="1.0" xmlns="http://www.w3.org/2000/svg"
 width="200.000000pt" height="200.000000pt" viewBox="0 0 200.000000 200.000000"
 preserveAspectRatio="xMidYMid meet">
<metadata>
Created by potrace 1.15, written by Peter Selinger 2001-2017
</metadata>
<g transform="translate(0.000000,200.000000) scale(0.100000,-0.100000)"
fill="#000000" stroke="none">
<path d="M859 1809 c-16 -34 -28 -67 -25 -75 7 -19 409 -214 442 -214 19 0 79
120 68 137 -10 15 -420 213 -440 213 -8 0 -28 -27 -45 -61z"/>
<path d="M417 1525 c-15 -31 -27 -62 -27 -71 0 -17 252 -144 286 -144 26 0 84
113 69 136 -13 19 -253 134 -280 134 -15 0 -28 -15 -48 -55z"/>
<path d="M1666 1429 c-42 -82 -43 -82 107 -155 72 -35 141 -63 152 -62 19 3
74 95 75 126 0 15 -253 142 -285 142 -17 0 -29 -13 -49 -51z"/>
<path d="M1092 1258 c-18 -23 -52 -97 -52 -113 0 -18 423 -228 448 -223 19 4
76 114 68 133 -3 8 -54 38 -113 66 -59 28 -153 73 -207 100 -103 51 -127 57
-144 37z"/>
<path d="M470 1000 c-16 -33 -30 -64 -30 -70 0 -14 429 -222 449 -218 19 4 70
94 71 124 0 17 -16 29 -77 57 -43 19 -139 65 -215 101 -75 36 -143 66 -152 66
-9 0 -28 -25 -46 -60z"/>
<path d="M53 758 c-22 -36 -52 -110 -47 -121 6 -15 259 -137 285 -137 12 0 27
17 44 50 44 87 43 88 -107 158 -137 64 -161 71 -175 50z"/>
<path d="M1314 672 c-15 -9 -64 -107 -64 -126 0 -18 266 -148 293 -144 21 4
72 109 64 132 -4 11 -269 148 -281 146 -1 0 -6 -4 -12 -8z"/>
<path d="M722 462 c-17 -5 -73 -118 -67 -134 3 -8 36 -28 73 -45 37 -17 134
-64 216 -103 81 -39 154 -69 162 -66 19 7 66 104 62 127 -2 15 -57 45 -218
123 -119 56 -221 101 -228 98z"/>
</g>
</svg>
